<?xml version="1.0" encoding="UTF-8"?> <svg xmlns="http://www.w3.org/2000/svg" version="1.1" id="Layer_1" x="0" y="0" viewBox="0 0 100 19.1" xml:space="preserve"><style>.st0{fill:#192b80}</style><path class="st0" d="M0 16.6l2.4-4.1c1.1 1.2 2.8 1.9 4.6 1.9 1 0 1.7-.4 1.7-1 0-2-8.2-.9-8.2-7.5C.6 3 2.9 0 7.5 0c2.5 0 4.7.8 6.3 2.2l-2.3 4c-1.2-1-2.7-1.5-4.1-1.5-1 0-1.4.4-1.4 1 0 1.9 8.2 1.1 8.2 7.3 0 3.7-2.6 6.1-7 6.1-3.3 0-5.5-1-7.2-2.5zM16.8 18.7V.3h11.7v4.6H22v2.3h6.2v4.6H22v2.5h6.4v4.6H16.8zM42.3 18.7l-.6-2.4h-4.9l-.6 2.4h-5.6L36.1.3h6.3l5.5 18.4h-5.6zm-3-13l-1.4 6.1h2.9l-1.5-6.1zM58.9 18.7l-2.1-6h-1.4v6h-5.2V.3h8.1c3.8 0 6.2 2.7 6.2 6.1 0 3.1-1.5 4.7-2.8 5.4l2.9 6.9h-5.7zm.4-12.2c0-1.1-.8-1.7-1.8-1.7h-2.1v3.3h2.1c1 .1 1.8-.5 1.8-1.6zM66.8 9.5c0-5.7 3.3-9.5 8.5-9.5 4.2 0 6 2.9 6.9 5.2L78 7.1c-.4-1.4-1.3-2.5-2.6-2.5-2 0-3.2 2-3.2 4.9 0 2.9 1.2 4.9 3.2 4.9 1.3 0 2.3-1.2 2.6-2.6l4.3 1.8c-.8 2.3-2.7 5.4-6.9 5.4-5.3.1-8.6-3.8-8.6-9.5zM94.8 18.7v-7.2H90v7.2h-5.2V.3H90V7h4.7V.3h5.2v18.4h-5.1z"></path></svg> 